<svg width="159" height="29" viewBox="0 0 159 29" fill="none" xmlns="http://www.w3.org/2000/svg">
<path d="M58.42 15.94V13.34H65.5C65.5667 14.46 65.4533 15.5067 65.16 16.48C64.8667 17.4533 64.4133 18.3133 63.8 19.06C63.1867 19.8067 62.42 20.3933 61.5 20.82C60.58 21.2333 59.5267 21.44 58.34 21.44C57.22 21.44 56.1933 21.2667 55.26 20.92C54.3267 20.56 53.52 20.0533 52.84 19.4C52.16 18.7333 51.6267 17.9467 51.24 17.04C50.8667 16.12 50.68 15.1067 50.68 14C50.68 12.8933 50.8733 11.8933 51.26 11C51.6467 10.0933 52.1933 9.32 52.9 8.68C53.6067 8.04 54.4333 7.54667 55.38 7.2C56.3267 6.85333 57.3533 6.68 58.46 6.68C59.4467 6.68 60.3333 6.82 61.12 7.1C61.9067 7.38 62.6 7.77333 63.2 8.28C63.8133 8.77333 64.34 9.34667 64.78 10L61.78 11.56C61.46 11 61.0267 10.54 60.48 10.18C59.9467 9.80667 59.2733 9.62 58.46 9.62C57.6867 9.62 56.9733 9.79333 56.32 10.14C55.68 10.4867 55.1667 10.9867 54.78 11.64C54.4067 12.28 54.22 13.0667 54.22 14C54.22 14.92 54.4 15.72 54.76 16.4C55.1333 17.0667 55.6333 17.5867 56.26 17.96C56.9 18.32 57.6333 18.5 58.46 18.5C58.9667 18.5 59.4267 18.44 59.84 18.32C60.2533 18.1867 60.6067 18.0067 60.9 17.78C61.1933 17.54 61.44 17.2667 61.64 16.96C61.8533 16.64 62.02 16.3 62.14 15.94H58.42ZM66.9291 16.4C66.9291 15.4267 67.1557 14.58 67.6091 13.86C68.0624 13.14 68.6891 12.58 69.4891 12.18C70.2891 11.78 71.1891 11.58 72.1891 11.58C73.1891 11.58 74.0824 11.78 74.8691 12.18C75.6691 12.58 76.2957 13.14 76.7491 13.86C77.2157 14.58 77.4491 15.4267 77.4491 16.4C77.4491 17.36 77.2157 18.2 76.7491 18.92C76.2957 19.64 75.6691 20.2 74.8691 20.6C74.0824 21 73.1891 21.2 72.1891 21.2C71.1891 21.2 70.2891 21 69.4891 20.6C68.6891 20.2 68.0624 19.64 67.6091 18.92C67.1557 18.2 66.9291 17.36 66.9291 16.4ZM70.0291 16.4C70.0291 16.88 70.1291 17.2933 70.3291 17.64C70.5291 17.9733 70.7891 18.2333 71.1091 18.42C71.4291 18.6067 71.7891 18.7 72.1891 18.7C72.5757 18.7 72.9291 18.6067 73.2491 18.42C73.5824 18.2333 73.8424 17.9733 74.0291 17.64C74.2291 17.2933 74.3291 16.88 74.3291 16.4C74.3291 15.92 74.2291 15.5067 74.0291 15.16C73.8424 14.8133 73.5824 14.5467 73.2491 14.36C72.9291 14.1733 72.5757 14.08 72.1891 14.08C71.7891 14.08 71.4291 14.1733 71.1091 14.36C70.7891 14.5467 70.5291 14.8133 70.3291 15.16C70.1291 15.5067 70.0291 15.92 70.0291 16.4ZM78.7259 16.4C78.7259 15.4267 78.9526 14.58 79.4059 13.86C79.8593 13.14 80.4859 12.58 81.2859 12.18C82.0859 11.78 82.9859 11.58 83.9859 11.58C84.9859 11.58 85.8793 11.78 86.6659 12.18C87.4659 12.58 88.0926 13.14 88.5459 13.86C89.0126 14.58 89.2459 15.4267 89.2459 16.4C89.2459 17.36 89.0126 18.2 88.5459 18.92C88.0926 19.64 87.4659 20.2 86.6659 20.6C85.8793 21 84.9859 21.2 83.9859 21.2C82.9859 21.2 82.0859 21 81.2859 20.6C80.4859 20.2 79.8593 19.64 79.4059 18.92C78.9526 18.2 78.7259 17.36 78.7259 16.4ZM81.8259 16.4C81.8259 16.88 81.9259 17.2933 82.1259 17.64C82.3259 17.9733 82.5859 18.2333 82.9059 18.42C83.2259 18.6067 83.5859 18.7 83.9859 18.7C84.3726 18.7 84.7259 18.6067 85.0459 18.42C85.3793 18.2333 85.6393 17.9733 85.8259 17.64C86.0259 17.2933 86.1259 16.88 86.1259 16.4C86.1259 15.92 86.0259 15.5067 85.8259 15.16C85.6393 14.8133 85.3793 14.5467 85.0459 14.36C84.7259 14.1733 84.3726 14.08 83.9859 14.08C83.5859 14.08 83.2259 14.1733 82.9059 14.36C82.5859 14.5467 82.3259 14.8133 82.1259 15.16C81.9259 15.5067 81.8259 15.92 81.8259 16.4ZM98.0428 5.4H101.063V21H98.0428V5.4ZM90.5228 16.4C90.5228 15.36 90.7295 14.4867 91.1428 13.78C91.5695 13.0733 92.1161 12.5333 92.7828 12.16C93.4495 11.7867 94.1561 11.6 94.9028 11.6C95.6761 11.6 96.3561 11.7933 96.9428 12.18C97.5428 12.5667 98.0161 13.12 98.3628 13.84C98.7095 14.5467 98.8828 15.4 98.8828 16.4C98.8828 17.3867 98.7095 18.24 98.3628 18.96C98.0161 19.68 97.5428 20.2333 96.9428 20.62C96.3561 21.0067 95.6761 21.2 94.9028 21.2C94.1561 21.2 93.4495 21.0133 92.7828 20.64C92.1161 20.2667 91.5695 19.7267 91.1428 19.02C90.7295 18.3 90.5228 17.4267 90.5228 16.4ZM93.7028 16.4C93.7028 16.88 93.8028 17.3 94.0028 17.66C94.2028 18.0067 94.4695 18.28 94.8028 18.48C95.1361 18.6667 95.5028 18.76 95.9028 18.76C96.2495 18.76 96.5828 18.6667 96.9028 18.48C97.2361 18.2933 97.5095 18.0267 97.7228 17.68C97.9361 17.32 98.0428 16.8933 98.0428 16.4C98.0428 15.9067 97.9361 15.4867 97.7228 15.14C97.5095 14.78 97.2361 14.5067 96.9028 14.32C96.5828 14.1333 96.2495 14.04 95.9028 14.04C95.5028 14.04 95.1361 14.14 94.8028 14.34C94.4695 14.5267 94.2028 14.8 94.0028 15.16C93.8028 15.5067 93.7028 15.92 93.7028 16.4ZM103.907 17.66C104.373 18.0467 104.793 18.3533 105.167 18.58C105.553 18.7933 105.893 18.9467 106.187 19.04C106.48 19.12 106.733 19.16 106.947 19.16C107.253 19.16 107.48 19.0933 107.627 18.96C107.773 18.8267 107.847 18.6533 107.847 18.44C107.847 18.24 107.787 18.0733 107.667 17.94C107.547 17.7933 107.34 17.6533 107.047 17.52C106.767 17.3867 106.38 17.2467 105.887 17.1C105.447 16.94 105.027 16.7533 104.627 16.54C104.24 16.3133 103.92 16.0133 103.667 15.64C103.413 15.2667 103.287 14.7867 103.287 14.2C103.287 13.64 103.433 13.1667 103.727 12.78C104.033 12.3933 104.44 12.1 104.947 11.9C105.467 11.7 106.06 11.6 106.727 11.6C107.26 11.6 107.753 11.66 108.207 11.78C108.673 11.9 109.107 12.06 109.507 12.26C109.92 12.46 110.307 12.6933 110.667 12.96L109.587 14.92C109.2 14.56 108.76 14.2667 108.267 14.04C107.773 13.8 107.32 13.68 106.907 13.68C106.627 13.68 106.413 13.7333 106.267 13.84C106.133 13.9467 106.067 14.0867 106.067 14.26C106.067 14.46 106.147 14.6267 106.307 14.76C106.48 14.8933 106.72 15.02 107.027 15.14C107.347 15.2467 107.733 15.3867 108.187 15.56C108.667 15.7333 109.107 15.9333 109.507 16.16C109.92 16.3867 110.247 16.6733 110.487 17.02C110.74 17.3667 110.867 17.8267 110.867 18.4C110.867 19.3867 110.56 20.1333 109.947 20.64C109.347 21.1333 108.5 21.38 107.407 21.38C106.74 21.38 106.12 21.3 105.547 21.14C104.987 20.9933 104.467 20.7933 103.987 20.54C103.507 20.2733 103.06 19.98 102.647 19.66L103.907 17.66ZM111.628 18.52L119.748 7H122.268V21H118.748V17.48L119.128 17.26V11.9L116.108 16.08H121.268L121.608 15.64H124.468V18.52H111.628ZM135.913 11.8L129.913 25.4H126.873L129.113 20.26L125.132 11.8H128.453L131.433 19.18L129.873 19.16L132.813 11.8H135.913ZM136.089 16.4C136.089 15.4267 136.316 14.58 136.769 13.86C137.223 13.14 137.849 12.58 138.649 12.18C139.449 11.78 140.349 11.58 141.349 11.58C142.349 11.58 143.243 11.78 144.029 12.18C144.829 12.58 145.456 13.14 145.909 13.86C146.376 14.58 146.609 15.4267 146.609 16.4C146.609 17.36 146.376 18.2 145.909 18.92C145.456 19.64 144.829 20.2 144.029 20.6C143.243 21 142.349 21.2 141.349 21.2C140.349 21.2 139.449 21 138.649 20.6C137.849 20.2 137.223 19.64 136.769 18.92C136.316 18.2 136.089 17.36 136.089 16.4ZM139.189 16.4C139.189 16.88 139.289 17.2933 139.489 17.64C139.689 17.9733 139.949 18.2333 140.269 18.42C140.589 18.6067 140.949 18.7 141.349 18.7C141.736 18.7 142.089 18.6067 142.409 18.42C142.743 18.2333 143.003 17.9733 143.189 17.64C143.389 17.2933 143.489 16.88 143.489 16.4C143.489 15.92 143.389 15.5067 143.189 15.16C143.003 14.8133 142.743 14.5467 142.409 14.36C142.089 14.1733 141.736 14.08 141.349 14.08C140.949 14.08 140.589 14.1733 140.269 14.36C139.949 14.5467 139.689 14.8133 139.489 15.16C139.289 15.5067 139.189 15.92 139.189 16.4ZM151.586 17.4C151.586 17.9333 151.686 18.3533 151.886 18.66C152.086 18.9533 152.433 19.1 152.926 19.1C153.259 19.1 153.539 19.0333 153.766 18.9C154.006 18.7667 154.193 18.5733 154.326 18.32C154.459 18.0667 154.526 17.76 154.526 17.4V11.8H157.546V21H154.526V19.62C154.246 20.1133 153.879 20.5067 153.426 20.8C152.973 21.08 152.406 21.22 151.726 21.22C150.579 21.22 149.739 20.9133 149.206 20.3C148.686 19.6733 148.426 18.8133 148.426 17.72V11.8H151.586V17.4Z" fill="white"/>
<line x1="1.31134e-07" y1="8.5" x2="30" y2="8.5" stroke="white" stroke-width="3"/>
</svg>
